<mxfile host="Electron" agent="Mozilla/5.0 (Windows NT 10.0; Win64; x64) AppleWebKit/537.36 (KHTML, like Gecko) draw.io/26.0.9 Chrome/128.0.6613.186 Electron/32.2.5 Safari/537.36" version="26.0.9">
  <diagram name="Page-1" id="A-P2g9G-TL0U4O_s3leG">
    <mxGraphModel dx="500" dy="296" grid="1" gridSize="10" guides="1" tooltips="1" connect="1" arrows="1" fold="1" page="1" pageScale="1" pageWidth="827" pageHeight="1169" math="0" shadow="0">
      <root>
        <mxCell id="0" />
        <mxCell id="1" parent="0" />
        <mxCell id="1FM3fD10bi2aSTOGDLm9-132" value="" style="group" parent="1" vertex="1" connectable="0">
          <mxGeometry x="120" y="290" width="270" height="30" as="geometry" />
        </mxCell>
        <mxCell id="1FM3fD10bi2aSTOGDLm9-21" value="" style="endArrow=none;html=1;rounded=0;strokeColor=#000000;" parent="1FM3fD10bi2aSTOGDLm9-132" edge="1">
          <mxGeometry width="50" height="50" relative="1" as="geometry">
            <mxPoint y="30" as="sourcePoint" />
            <mxPoint x="40" y="30" as="targetPoint" />
          </mxGeometry>
        </mxCell>
        <mxCell id="1FM3fD10bi2aSTOGDLm9-38" value="" style="endArrow=none;html=1;rounded=0;strokeColor=#000000;" parent="1FM3fD10bi2aSTOGDLm9-132" edge="1">
          <mxGeometry width="50" height="50" relative="1" as="geometry">
            <mxPoint x="40" as="sourcePoint" />
            <mxPoint x="80" as="targetPoint" />
          </mxGeometry>
        </mxCell>
        <mxCell id="1FM3fD10bi2aSTOGDLm9-39" value="" style="endArrow=none;html=1;rounded=0;strokeColor=#000000;" parent="1FM3fD10bi2aSTOGDLm9-132" edge="1">
          <mxGeometry width="50" height="50" relative="1" as="geometry">
            <mxPoint x="120" as="sourcePoint" />
            <mxPoint x="160" as="targetPoint" />
          </mxGeometry>
        </mxCell>
        <mxCell id="1FM3fD10bi2aSTOGDLm9-40" value="" style="endArrow=none;html=1;rounded=0;strokeColor=#000000;" parent="1FM3fD10bi2aSTOGDLm9-132" edge="1">
          <mxGeometry width="50" height="50" relative="1" as="geometry">
            <mxPoint x="200" as="sourcePoint" />
            <mxPoint x="240" as="targetPoint" />
          </mxGeometry>
        </mxCell>
        <mxCell id="1FM3fD10bi2aSTOGDLm9-41" value="" style="endArrow=none;html=1;rounded=0;strokeColor=#000000;" parent="1FM3fD10bi2aSTOGDLm9-132" edge="1">
          <mxGeometry width="50" height="50" relative="1" as="geometry">
            <mxPoint x="80" y="30" as="sourcePoint" />
            <mxPoint x="120" y="30" as="targetPoint" />
          </mxGeometry>
        </mxCell>
        <mxCell id="1FM3fD10bi2aSTOGDLm9-42" value="" style="endArrow=none;html=1;rounded=0;strokeColor=#000000;" parent="1FM3fD10bi2aSTOGDLm9-132" edge="1">
          <mxGeometry width="50" height="50" relative="1" as="geometry">
            <mxPoint x="160" y="30" as="sourcePoint" />
            <mxPoint x="200" y="30" as="targetPoint" />
          </mxGeometry>
        </mxCell>
        <mxCell id="1FM3fD10bi2aSTOGDLm9-43" value="" style="endArrow=none;html=1;rounded=0;strokeColor=#000000;" parent="1FM3fD10bi2aSTOGDLm9-132" edge="1">
          <mxGeometry width="50" height="50" relative="1" as="geometry">
            <mxPoint x="40" as="sourcePoint" />
            <mxPoint x="40" y="30" as="targetPoint" />
          </mxGeometry>
        </mxCell>
        <mxCell id="1FM3fD10bi2aSTOGDLm9-44" value="" style="endArrow=none;html=1;rounded=0;strokeColor=#000000;" parent="1FM3fD10bi2aSTOGDLm9-132" edge="1">
          <mxGeometry width="50" height="50" relative="1" as="geometry">
            <mxPoint x="80" as="sourcePoint" />
            <mxPoint x="80" y="30" as="targetPoint" />
          </mxGeometry>
        </mxCell>
        <mxCell id="1FM3fD10bi2aSTOGDLm9-45" value="" style="endArrow=none;html=1;rounded=0;strokeColor=#000000;" parent="1FM3fD10bi2aSTOGDLm9-132" edge="1">
          <mxGeometry width="50" height="50" relative="1" as="geometry">
            <mxPoint x="120" as="sourcePoint" />
            <mxPoint x="120" y="30" as="targetPoint" />
          </mxGeometry>
        </mxCell>
        <mxCell id="1FM3fD10bi2aSTOGDLm9-46" value="" style="endArrow=none;html=1;rounded=0;strokeColor=#000000;" parent="1FM3fD10bi2aSTOGDLm9-132" edge="1">
          <mxGeometry width="50" height="50" relative="1" as="geometry">
            <mxPoint x="160" as="sourcePoint" />
            <mxPoint x="160" y="30" as="targetPoint" />
          </mxGeometry>
        </mxCell>
        <mxCell id="1FM3fD10bi2aSTOGDLm9-47" value="" style="endArrow=none;html=1;rounded=0;strokeColor=#000000;" parent="1FM3fD10bi2aSTOGDLm9-132" edge="1">
          <mxGeometry width="50" height="50" relative="1" as="geometry">
            <mxPoint x="200" as="sourcePoint" />
            <mxPoint x="200" y="30" as="targetPoint" />
          </mxGeometry>
        </mxCell>
        <mxCell id="1FM3fD10bi2aSTOGDLm9-48" value="" style="endArrow=none;html=1;rounded=0;strokeColor=#000000;" parent="1FM3fD10bi2aSTOGDLm9-132" edge="1">
          <mxGeometry width="50" height="50" relative="1" as="geometry">
            <mxPoint x="240" as="sourcePoint" />
            <mxPoint x="240" y="30" as="targetPoint" />
          </mxGeometry>
        </mxCell>
        <mxCell id="1FM3fD10bi2aSTOGDLm9-49" value="" style="endArrow=none;html=1;rounded=0;strokeColor=#000000;dashed=1;dashPattern=8 8;" parent="1FM3fD10bi2aSTOGDLm9-132" edge="1">
          <mxGeometry width="50" height="50" relative="1" as="geometry">
            <mxPoint x="240" y="30" as="sourcePoint" />
            <mxPoint x="270" y="30" as="targetPoint" />
          </mxGeometry>
        </mxCell>
        <mxCell id="1FM3fD10bi2aSTOGDLm9-1" value="" style="endArrow=classic;html=1;rounded=0;" parent="1" edge="1">
          <mxGeometry width="50" height="50" relative="1" as="geometry">
            <mxPoint x="120" y="250" as="sourcePoint" />
            <mxPoint x="120" y="140" as="targetPoint" />
          </mxGeometry>
        </mxCell>
        <mxCell id="1FM3fD10bi2aSTOGDLm9-20" value="ZÃ¤hlerwert des Hardware-Timers (&lt;b&gt;&lt;font style=&quot;font-size: 13px;&quot; face=&quot;Courier New&quot;&gt;CNT&lt;/font&gt;&lt;/b&gt;)" style="edgeLabel;html=1;align=left;verticalAlign=middle;resizable=0;points=[];" parent="1FM3fD10bi2aSTOGDLm9-1" vertex="1" connectable="0">
          <mxGeometry x="0.8019" y="1" relative="1" as="geometry">
            <mxPoint x="11" as="offset" />
          </mxGeometry>
        </mxCell>
        <mxCell id="1FM3fD10bi2aSTOGDLm9-2" value="" style="endArrow=classic;html=1;rounded=0;" parent="1" edge="1">
          <mxGeometry width="50" height="50" relative="1" as="geometry">
            <mxPoint x="120" y="240" as="sourcePoint" />
            <mxPoint x="410" y="240" as="targetPoint" />
          </mxGeometry>
        </mxCell>
        <mxCell id="1FM3fD10bi2aSTOGDLm9-10" value="Ticks" style="edgeLabel;html=1;align=center;verticalAlign=middle;resizable=0;points=[];" parent="1FM3fD10bi2aSTOGDLm9-2" vertex="1" connectable="0">
          <mxGeometry x="0.9232" y="-1" relative="1" as="geometry">
            <mxPoint x="24" y="-11" as="offset" />
          </mxGeometry>
        </mxCell>
        <mxCell id="1FM3fD10bi2aSTOGDLm9-3" value="" style="endArrow=classic;html=1;rounded=0;" parent="1" edge="1">
          <mxGeometry width="50" height="50" relative="1" as="geometry">
            <mxPoint x="120" y="330" as="sourcePoint" />
            <mxPoint x="120" y="270" as="targetPoint" />
          </mxGeometry>
        </mxCell>
        <mxCell id="1FM3fD10bi2aSTOGDLm9-19" value="Ausgangssignal am Pin" style="edgeLabel;html=1;align=left;verticalAlign=middle;resizable=0;points=[];" parent="1FM3fD10bi2aSTOGDLm9-3" vertex="1" connectable="0">
          <mxGeometry x="0.6943" relative="1" as="geometry">
            <mxPoint x="10" y="-9" as="offset" />
          </mxGeometry>
        </mxCell>
        <mxCell id="1FM3fD10bi2aSTOGDLm9-4" value="" style="endArrow=classic;html=1;rounded=0;" parent="1" edge="1">
          <mxGeometry width="50" height="50" relative="1" as="geometry">
            <mxPoint x="120" y="320" as="sourcePoint" />
            <mxPoint x="410" y="320" as="targetPoint" />
          </mxGeometry>
        </mxCell>
        <mxCell id="1FM3fD10bi2aSTOGDLm9-9" value="t" style="edgeLabel;html=1;align=center;verticalAlign=middle;resizable=0;points=[];" parent="1FM3fD10bi2aSTOGDLm9-4" vertex="1" connectable="0">
          <mxGeometry x="0.9441" y="-1" relative="1" as="geometry">
            <mxPoint x="10" y="-11" as="offset" />
          </mxGeometry>
        </mxCell>
        <mxCell id="1FM3fD10bi2aSTOGDLm9-5" value="" style="endArrow=none;html=1;rounded=0;" parent="1" edge="1">
          <mxGeometry width="50" height="50" relative="1" as="geometry">
            <mxPoint x="115" y="290" as="sourcePoint" />
            <mxPoint x="125" y="290" as="targetPoint" />
          </mxGeometry>
        </mxCell>
        <mxCell id="1FM3fD10bi2aSTOGDLm9-6" value="1" style="edgeLabel;html=1;align=center;verticalAlign=middle;resizable=0;points=[];" parent="1FM3fD10bi2aSTOGDLm9-5" vertex="1" connectable="0">
          <mxGeometry x="-0.7543" y="1" relative="1" as="geometry">
            <mxPoint x="-6" as="offset" />
          </mxGeometry>
        </mxCell>
        <mxCell id="1FM3fD10bi2aSTOGDLm9-7" value="" style="endArrow=none;html=1;rounded=0;" parent="1" edge="1">
          <mxGeometry width="50" height="50" relative="1" as="geometry">
            <mxPoint x="115" y="320" as="sourcePoint" />
            <mxPoint x="125" y="320" as="targetPoint" />
          </mxGeometry>
        </mxCell>
        <mxCell id="1FM3fD10bi2aSTOGDLm9-8" value="0" style="edgeLabel;html=1;align=center;verticalAlign=middle;resizable=0;points=[];" parent="1FM3fD10bi2aSTOGDLm9-7" vertex="1" connectable="0">
          <mxGeometry x="-0.7543" y="1" relative="1" as="geometry">
            <mxPoint x="-6" as="offset" />
          </mxGeometry>
        </mxCell>
        <mxCell id="1FM3fD10bi2aSTOGDLm9-11" value="" style="endArrow=none;html=1;rounded=0;" parent="1" edge="1">
          <mxGeometry width="50" height="50" relative="1" as="geometry">
            <mxPoint x="115" y="200" as="sourcePoint" />
            <mxPoint x="125" y="200" as="targetPoint" />
          </mxGeometry>
        </mxCell>
        <mxCell id="1FM3fD10bi2aSTOGDLm9-12" value="OC" style="edgeLabel;html=1;align=center;verticalAlign=middle;resizable=0;points=[];fontColor=#009900;fontSize=12;fontFamily=Courier New;fontStyle=1" parent="1FM3fD10bi2aSTOGDLm9-11" vertex="1" connectable="0">
          <mxGeometry x="-0.7543" y="1" relative="1" as="geometry">
            <mxPoint x="-11" y="1" as="offset" />
          </mxGeometry>
        </mxCell>
        <mxCell id="1FM3fD10bi2aSTOGDLm9-15" value="" style="endArrow=none;html=1;rounded=0;" parent="1" edge="1">
          <mxGeometry width="50" height="50" relative="1" as="geometry">
            <mxPoint x="115" y="160" as="sourcePoint" />
            <mxPoint x="125" y="160" as="targetPoint" />
          </mxGeometry>
        </mxCell>
        <mxCell id="1FM3fD10bi2aSTOGDLm9-16" value="ARR" style="edgeLabel;html=1;align=center;verticalAlign=middle;resizable=0;points=[];fontColor=#990000;fontSize=12;fontFamily=Courier New;fontStyle=1" parent="1FM3fD10bi2aSTOGDLm9-15" vertex="1" connectable="0">
          <mxGeometry x="-0.7543" y="1" relative="1" as="geometry">
            <mxPoint x="-14" y="1" as="offset" />
          </mxGeometry>
        </mxCell>
        <mxCell id="1FM3fD10bi2aSTOGDLm9-17" value="" style="endArrow=none;html=1;rounded=0;" parent="1" edge="1">
          <mxGeometry width="50" height="50" relative="1" as="geometry">
            <mxPoint x="115" y="240" as="sourcePoint" />
            <mxPoint x="125" y="240" as="targetPoint" />
          </mxGeometry>
        </mxCell>
        <mxCell id="1FM3fD10bi2aSTOGDLm9-18" value="0" style="edgeLabel;html=1;align=center;verticalAlign=middle;resizable=0;points=[];" parent="1FM3fD10bi2aSTOGDLm9-17" vertex="1" connectable="0">
          <mxGeometry x="-0.7543" y="1" relative="1" as="geometry">
            <mxPoint x="-6" as="offset" />
          </mxGeometry>
        </mxCell>
        <mxCell id="1FM3fD10bi2aSTOGDLm9-22" value="" style="endArrow=none;html=1;rounded=0;strokeColor=#000099;" parent="1" edge="1">
          <mxGeometry width="50" height="50" relative="1" as="geometry">
            <mxPoint x="120" y="240" as="sourcePoint" />
            <mxPoint x="200" y="160" as="targetPoint" />
          </mxGeometry>
        </mxCell>
        <mxCell id="1FM3fD10bi2aSTOGDLm9-23" value="" style="endArrow=none;html=1;rounded=0;strokeColor=#000099;" parent="1" edge="1">
          <mxGeometry width="50" height="50" relative="1" as="geometry">
            <mxPoint x="200" y="240" as="sourcePoint" />
            <mxPoint x="280" y="160" as="targetPoint" />
          </mxGeometry>
        </mxCell>
        <mxCell id="1FM3fD10bi2aSTOGDLm9-24" value="" style="endArrow=none;html=1;rounded=0;strokeColor=#000099;" parent="1" edge="1">
          <mxGeometry width="50" height="50" relative="1" as="geometry">
            <mxPoint x="280" y="240" as="sourcePoint" />
            <mxPoint x="360" y="160" as="targetPoint" />
          </mxGeometry>
        </mxCell>
        <mxCell id="1FM3fD10bi2aSTOGDLm9-25" value="" style="endArrow=none;html=1;rounded=0;strokeColor=#000099;" parent="1" edge="1">
          <mxGeometry width="50" height="50" relative="1" as="geometry">
            <mxPoint x="200" y="240" as="sourcePoint" />
            <mxPoint x="200" y="160" as="targetPoint" />
          </mxGeometry>
        </mxCell>
        <mxCell id="1FM3fD10bi2aSTOGDLm9-26" value="" style="endArrow=none;html=1;rounded=0;strokeColor=#000099;" parent="1" edge="1">
          <mxGeometry width="50" height="50" relative="1" as="geometry">
            <mxPoint x="280" y="240" as="sourcePoint" />
            <mxPoint x="280" y="160" as="targetPoint" />
          </mxGeometry>
        </mxCell>
        <mxCell id="1FM3fD10bi2aSTOGDLm9-27" value="" style="endArrow=none;html=1;rounded=0;strokeColor=#000099;" parent="1" edge="1">
          <mxGeometry width="50" height="50" relative="1" as="geometry">
            <mxPoint x="360" y="240" as="sourcePoint" />
            <mxPoint x="360" y="160" as="targetPoint" />
          </mxGeometry>
        </mxCell>
        <mxCell id="1FM3fD10bi2aSTOGDLm9-28" value="" style="endArrow=none;html=1;rounded=0;strokeColor=#000099;dashed=1;dashPattern=8 8;" parent="1" edge="1">
          <mxGeometry width="50" height="50" relative="1" as="geometry">
            <mxPoint x="360" y="240" as="sourcePoint" />
            <mxPoint x="390" y="210" as="targetPoint" />
          </mxGeometry>
        </mxCell>
        <mxCell id="1FM3fD10bi2aSTOGDLm9-29" value="" style="endArrow=none;dashed=1;html=1;dashPattern=1 3;strokeWidth=1;rounded=0;strokeColor=#00CC00;" parent="1" edge="1">
          <mxGeometry width="50" height="50" relative="1" as="geometry">
            <mxPoint x="120" y="200" as="sourcePoint" />
            <mxPoint x="450" y="200" as="targetPoint" />
          </mxGeometry>
        </mxCell>
        <mxCell id="1FM3fD10bi2aSTOGDLm9-30" value="" style="endArrow=none;dashed=1;html=1;dashPattern=1 3;strokeWidth=1;rounded=0;strokeColor=#FF0000;" parent="1" edge="1">
          <mxGeometry width="50" height="50" relative="1" as="geometry">
            <mxPoint x="120" y="160" as="sourcePoint" />
            <mxPoint x="450" y="160" as="targetPoint" />
          </mxGeometry>
        </mxCell>
        <mxCell id="1FM3fD10bi2aSTOGDLm9-31" value="" style="endArrow=none;dashed=1;html=1;dashPattern=1 3;strokeWidth=1;rounded=0;strokeColor=#00CC00;" parent="1" edge="1">
          <mxGeometry width="50" height="50" relative="1" as="geometry">
            <mxPoint x="160" y="200" as="sourcePoint" />
            <mxPoint x="160" y="360" as="targetPoint" />
          </mxGeometry>
        </mxCell>
        <mxCell id="1FM3fD10bi2aSTOGDLm9-32" value="" style="endArrow=none;dashed=1;html=1;dashPattern=1 3;strokeWidth=1;rounded=0;strokeColor=#00CC00;" parent="1" edge="1">
          <mxGeometry width="50" height="50" relative="1" as="geometry">
            <mxPoint x="240" y="200" as="sourcePoint" />
            <mxPoint x="240" y="360" as="targetPoint" />
          </mxGeometry>
        </mxCell>
        <mxCell id="1FM3fD10bi2aSTOGDLm9-33" value="" style="endArrow=none;dashed=1;html=1;dashPattern=1 3;strokeWidth=1;rounded=0;strokeColor=#00CC00;" parent="1" edge="1">
          <mxGeometry width="50" height="50" relative="1" as="geometry">
            <mxPoint x="320" y="200" as="sourcePoint" />
            <mxPoint x="320" y="360" as="targetPoint" />
          </mxGeometry>
        </mxCell>
        <mxCell id="1FM3fD10bi2aSTOGDLm9-34" value="" style="endArrow=none;dashed=1;html=1;dashPattern=1 3;strokeWidth=1;rounded=0;strokeColor=#FF0000;" parent="1" edge="1">
          <mxGeometry width="50" height="50" relative="1" as="geometry">
            <mxPoint x="200" y="160" as="sourcePoint" />
            <mxPoint x="200" y="400" as="targetPoint" />
          </mxGeometry>
        </mxCell>
        <mxCell id="1FM3fD10bi2aSTOGDLm9-35" value="" style="endArrow=none;dashed=1;html=1;dashPattern=1 3;strokeWidth=1;rounded=0;strokeColor=#FF0000;" parent="1" edge="1">
          <mxGeometry width="50" height="50" relative="1" as="geometry">
            <mxPoint x="280" y="160" as="sourcePoint" />
            <mxPoint x="280" y="400" as="targetPoint" />
          </mxGeometry>
        </mxCell>
        <mxCell id="1FM3fD10bi2aSTOGDLm9-36" value="" style="endArrow=none;dashed=1;html=1;dashPattern=1 3;strokeWidth=1;rounded=0;strokeColor=#FF0000;" parent="1" edge="1">
          <mxGeometry width="50" height="50" relative="1" as="geometry">
            <mxPoint x="360" y="160" as="sourcePoint" />
            <mxPoint x="360" y="400" as="targetPoint" />
          </mxGeometry>
        </mxCell>
        <mxCell id="1FM3fD10bi2aSTOGDLm9-50" value="" style="endArrow=classic;startArrow=classic;html=1;rounded=0;" parent="1" edge="1">
          <mxGeometry width="50" height="50" relative="1" as="geometry">
            <mxPoint x="160" y="330" as="sourcePoint" />
            <mxPoint x="200" y="330" as="targetPoint" />
          </mxGeometry>
        </mxCell>
        <mxCell id="1FM3fD10bi2aSTOGDLm9-117" value="&lt;font size=&quot;1&quot;&gt;T&lt;sub&gt;S&lt;/sub&gt;/2&lt;/font&gt;" style="edgeLabel;html=1;align=center;verticalAlign=middle;resizable=0;points=[];" parent="1FM3fD10bi2aSTOGDLm9-50" vertex="1" connectable="0">
          <mxGeometry x="0.6207" relative="1" as="geometry">
            <mxPoint x="-13" y="13" as="offset" />
          </mxGeometry>
        </mxCell>
        <mxCell id="1FM3fD10bi2aSTOGDLm9-105" value="" style="group" parent="1" vertex="1" connectable="0">
          <mxGeometry x="460" y="235" width="160" height="10" as="geometry" />
        </mxCell>
        <mxCell id="1FM3fD10bi2aSTOGDLm9-51" value="X" style="rounded=0;whiteSpace=wrap;html=1;strokeColor=#000099;fontSize=10;" parent="1FM3fD10bi2aSTOGDLm9-105" vertex="1">
          <mxGeometry width="10" height="10" as="geometry" />
        </mxCell>
        <mxCell id="1FM3fD10bi2aSTOGDLm9-52" value="X" style="rounded=0;whiteSpace=wrap;html=1;strokeColor=#000099;fontSize=10;" parent="1FM3fD10bi2aSTOGDLm9-105" vertex="1">
          <mxGeometry x="10" width="10" height="10" as="geometry" />
        </mxCell>
        <mxCell id="1FM3fD10bi2aSTOGDLm9-55" value="X" style="rounded=0;whiteSpace=wrap;html=1;strokeColor=#000099;fontSize=10;" parent="1FM3fD10bi2aSTOGDLm9-105" vertex="1">
          <mxGeometry x="20" width="10" height="10" as="geometry" />
        </mxCell>
        <mxCell id="1FM3fD10bi2aSTOGDLm9-56" value="X" style="rounded=0;whiteSpace=wrap;html=1;strokeColor=#000099;fontSize=10;" parent="1FM3fD10bi2aSTOGDLm9-105" vertex="1">
          <mxGeometry x="30" width="10" height="10" as="geometry" />
        </mxCell>
        <mxCell id="1FM3fD10bi2aSTOGDLm9-57" value="X" style="rounded=0;whiteSpace=wrap;html=1;strokeColor=#000099;fontSize=10;" parent="1FM3fD10bi2aSTOGDLm9-105" vertex="1">
          <mxGeometry x="40" width="10" height="10" as="geometry" />
        </mxCell>
        <mxCell id="1FM3fD10bi2aSTOGDLm9-58" value="X" style="rounded=0;whiteSpace=wrap;html=1;strokeColor=#000099;fontSize=10;" parent="1FM3fD10bi2aSTOGDLm9-105" vertex="1">
          <mxGeometry x="50" width="10" height="10" as="geometry" />
        </mxCell>
        <mxCell id="1FM3fD10bi2aSTOGDLm9-59" value="X" style="rounded=0;whiteSpace=wrap;html=1;strokeColor=#000099;fontSize=10;" parent="1FM3fD10bi2aSTOGDLm9-105" vertex="1">
          <mxGeometry x="60" width="10" height="10" as="geometry" />
        </mxCell>
        <mxCell id="1FM3fD10bi2aSTOGDLm9-60" value="X" style="rounded=0;whiteSpace=wrap;html=1;strokeColor=#000099;fontSize=10;" parent="1FM3fD10bi2aSTOGDLm9-105" vertex="1">
          <mxGeometry x="70" width="10" height="10" as="geometry" />
        </mxCell>
        <mxCell id="1FM3fD10bi2aSTOGDLm9-61" value="X" style="rounded=0;whiteSpace=wrap;html=1;strokeColor=#000099;fontSize=10;" parent="1FM3fD10bi2aSTOGDLm9-105" vertex="1">
          <mxGeometry x="80" width="10" height="10" as="geometry" />
        </mxCell>
        <mxCell id="1FM3fD10bi2aSTOGDLm9-62" value="X" style="rounded=0;whiteSpace=wrap;html=1;strokeColor=#000099;fontSize=10;" parent="1FM3fD10bi2aSTOGDLm9-105" vertex="1">
          <mxGeometry x="90" width="10" height="10" as="geometry" />
        </mxCell>
        <mxCell id="1FM3fD10bi2aSTOGDLm9-63" value="X" style="rounded=0;whiteSpace=wrap;html=1;strokeColor=#000099;fontSize=10;" parent="1FM3fD10bi2aSTOGDLm9-105" vertex="1">
          <mxGeometry x="100" width="10" height="10" as="geometry" />
        </mxCell>
        <mxCell id="1FM3fD10bi2aSTOGDLm9-64" value="X" style="rounded=0;whiteSpace=wrap;html=1;strokeColor=#000099;fontSize=10;" parent="1FM3fD10bi2aSTOGDLm9-105" vertex="1">
          <mxGeometry x="110" width="10" height="10" as="geometry" />
        </mxCell>
        <mxCell id="1FM3fD10bi2aSTOGDLm9-69" value="X" style="rounded=0;whiteSpace=wrap;html=1;strokeColor=#000099;fontSize=10;" parent="1FM3fD10bi2aSTOGDLm9-105" vertex="1">
          <mxGeometry x="120" width="10" height="10" as="geometry" />
        </mxCell>
        <mxCell id="1FM3fD10bi2aSTOGDLm9-70" value="X" style="rounded=0;whiteSpace=wrap;html=1;strokeColor=#000099;fontSize=10;" parent="1FM3fD10bi2aSTOGDLm9-105" vertex="1">
          <mxGeometry x="130" width="10" height="10" as="geometry" />
        </mxCell>
        <mxCell id="1FM3fD10bi2aSTOGDLm9-71" value="X" style="rounded=0;whiteSpace=wrap;html=1;strokeColor=#000099;fontSize=10;" parent="1FM3fD10bi2aSTOGDLm9-105" vertex="1">
          <mxGeometry x="140" width="10" height="10" as="geometry" />
        </mxCell>
        <mxCell id="1FM3fD10bi2aSTOGDLm9-72" value="X" style="rounded=0;whiteSpace=wrap;html=1;strokeColor=#000099;fontSize=10;" parent="1FM3fD10bi2aSTOGDLm9-105" vertex="1">
          <mxGeometry x="150" width="10" height="10" as="geometry" />
        </mxCell>
        <mxCell id="1FM3fD10bi2aSTOGDLm9-106" value="" style="group" parent="1" vertex="1" connectable="0">
          <mxGeometry x="460" y="195" width="160" height="10" as="geometry" />
        </mxCell>
        <mxCell id="1FM3fD10bi2aSTOGDLm9-73" value="0" style="rounded=0;whiteSpace=wrap;html=1;strokeColor=#009900;fontSize=10;" parent="1FM3fD10bi2aSTOGDLm9-106" vertex="1">
          <mxGeometry width="10" height="10" as="geometry" />
        </mxCell>
        <mxCell id="1FM3fD10bi2aSTOGDLm9-74" value="1" style="rounded=0;whiteSpace=wrap;html=1;strokeColor=#009900;fontSize=10;" parent="1FM3fD10bi2aSTOGDLm9-106" vertex="1">
          <mxGeometry x="10" width="10" height="10" as="geometry" />
        </mxCell>
        <mxCell id="1FM3fD10bi2aSTOGDLm9-75" value="1" style="rounded=0;whiteSpace=wrap;html=1;strokeColor=#009900;fontSize=10;" parent="1FM3fD10bi2aSTOGDLm9-106" vertex="1">
          <mxGeometry x="20" width="10" height="10" as="geometry" />
        </mxCell>
        <mxCell id="1FM3fD10bi2aSTOGDLm9-76" value="1" style="rounded=0;whiteSpace=wrap;html=1;strokeColor=#009900;fontSize=10;" parent="1FM3fD10bi2aSTOGDLm9-106" vertex="1">
          <mxGeometry x="30" width="10" height="10" as="geometry" />
        </mxCell>
        <mxCell id="1FM3fD10bi2aSTOGDLm9-77" value="1" style="rounded=0;whiteSpace=wrap;html=1;strokeColor=#009900;fontSize=10;" parent="1FM3fD10bi2aSTOGDLm9-106" vertex="1">
          <mxGeometry x="40" width="10" height="10" as="geometry" />
        </mxCell>
        <mxCell id="1FM3fD10bi2aSTOGDLm9-78" value="0" style="rounded=0;whiteSpace=wrap;html=1;strokeColor=#009900;fontSize=10;" parent="1FM3fD10bi2aSTOGDLm9-106" vertex="1">
          <mxGeometry x="50" width="10" height="10" as="geometry" />
        </mxCell>
        <mxCell id="1FM3fD10bi2aSTOGDLm9-79" value="0" style="rounded=0;whiteSpace=wrap;html=1;strokeColor=#009900;fontSize=10;" parent="1FM3fD10bi2aSTOGDLm9-106" vertex="1">
          <mxGeometry x="60" width="10" height="10" as="geometry" />
        </mxCell>
        <mxCell id="1FM3fD10bi2aSTOGDLm9-80" value="0" style="rounded=0;whiteSpace=wrap;html=1;strokeColor=#009900;fontSize=10;" parent="1FM3fD10bi2aSTOGDLm9-106" vertex="1">
          <mxGeometry x="70" width="10" height="10" as="geometry" />
        </mxCell>
        <mxCell id="1FM3fD10bi2aSTOGDLm9-81" value="0" style="rounded=0;whiteSpace=wrap;html=1;strokeColor=#009900;fontSize=10;" parent="1FM3fD10bi2aSTOGDLm9-106" vertex="1">
          <mxGeometry x="80" width="10" height="10" as="geometry" />
        </mxCell>
        <mxCell id="1FM3fD10bi2aSTOGDLm9-82" value="0" style="rounded=0;whiteSpace=wrap;html=1;strokeColor=#009900;fontSize=10;" parent="1FM3fD10bi2aSTOGDLm9-106" vertex="1">
          <mxGeometry x="90" width="10" height="10" as="geometry" />
        </mxCell>
        <mxCell id="1FM3fD10bi2aSTOGDLm9-83" value="0" style="rounded=0;whiteSpace=wrap;html=1;strokeColor=#009900;fontSize=10;" parent="1FM3fD10bi2aSTOGDLm9-106" vertex="1">
          <mxGeometry x="100" width="10" height="10" as="geometry" />
        </mxCell>
        <mxCell id="1FM3fD10bi2aSTOGDLm9-84" value="0" style="rounded=0;whiteSpace=wrap;html=1;strokeColor=#009900;fontSize=10;" parent="1FM3fD10bi2aSTOGDLm9-106" vertex="1">
          <mxGeometry x="110" width="10" height="10" as="geometry" />
        </mxCell>
        <mxCell id="1FM3fD10bi2aSTOGDLm9-85" value="0" style="rounded=0;whiteSpace=wrap;html=1;strokeColor=#009900;fontSize=10;" parent="1FM3fD10bi2aSTOGDLm9-106" vertex="1">
          <mxGeometry x="120" width="10" height="10" as="geometry" />
        </mxCell>
        <mxCell id="1FM3fD10bi2aSTOGDLm9-86" value="0" style="rounded=0;whiteSpace=wrap;html=1;strokeColor=#009900;fontSize=10;" parent="1FM3fD10bi2aSTOGDLm9-106" vertex="1">
          <mxGeometry x="130" width="10" height="10" as="geometry" />
        </mxCell>
        <mxCell id="1FM3fD10bi2aSTOGDLm9-87" value="0" style="rounded=0;whiteSpace=wrap;html=1;strokeColor=#009900;fontSize=10;" parent="1FM3fD10bi2aSTOGDLm9-106" vertex="1">
          <mxGeometry x="140" width="10" height="10" as="geometry" />
        </mxCell>
        <mxCell id="1FM3fD10bi2aSTOGDLm9-88" value="0" style="rounded=0;whiteSpace=wrap;html=1;strokeColor=#009900;fontSize=10;" parent="1FM3fD10bi2aSTOGDLm9-106" vertex="1">
          <mxGeometry x="150" width="10" height="10" as="geometry" />
        </mxCell>
        <mxCell id="1FM3fD10bi2aSTOGDLm9-107" value="" style="group" parent="1" vertex="1" connectable="0">
          <mxGeometry x="460" y="155" width="160" height="10" as="geometry" />
        </mxCell>
        <mxCell id="1FM3fD10bi2aSTOGDLm9-89" value="1" style="rounded=0;whiteSpace=wrap;html=1;strokeColor=#990000;fontSize=10;" parent="1FM3fD10bi2aSTOGDLm9-107" vertex="1">
          <mxGeometry width="10" height="10" as="geometry" />
        </mxCell>
        <mxCell id="1FM3fD10bi2aSTOGDLm9-90" value="1" style="rounded=0;whiteSpace=wrap;html=1;strokeColor=#990000;fontSize=10;" parent="1FM3fD10bi2aSTOGDLm9-107" vertex="1">
          <mxGeometry x="10" width="10" height="10" as="geometry" />
        </mxCell>
        <mxCell id="1FM3fD10bi2aSTOGDLm9-91" value="1" style="rounded=0;whiteSpace=wrap;html=1;strokeColor=#990000;fontSize=10;" parent="1FM3fD10bi2aSTOGDLm9-107" vertex="1">
          <mxGeometry x="20" width="10" height="10" as="geometry" />
        </mxCell>
        <mxCell id="1FM3fD10bi2aSTOGDLm9-92" value="1" style="rounded=0;whiteSpace=wrap;html=1;strokeColor=#990000;fontSize=10;" parent="1FM3fD10bi2aSTOGDLm9-107" vertex="1">
          <mxGeometry x="30" width="10" height="10" as="geometry" />
        </mxCell>
        <mxCell id="1FM3fD10bi2aSTOGDLm9-93" value="0" style="rounded=0;whiteSpace=wrap;html=1;strokeColor=#990000;fontSize=10;" parent="1FM3fD10bi2aSTOGDLm9-107" vertex="1">
          <mxGeometry x="40" width="10" height="10" as="geometry" />
        </mxCell>
        <mxCell id="1FM3fD10bi2aSTOGDLm9-94" value="0" style="rounded=0;whiteSpace=wrap;html=1;strokeColor=#990000;fontSize=10;" parent="1FM3fD10bi2aSTOGDLm9-107" vertex="1">
          <mxGeometry x="50" width="10" height="10" as="geometry" />
        </mxCell>
        <mxCell id="1FM3fD10bi2aSTOGDLm9-95" value="0" style="rounded=0;whiteSpace=wrap;html=1;strokeColor=#990000;fontSize=10;" parent="1FM3fD10bi2aSTOGDLm9-107" vertex="1">
          <mxGeometry x="60" width="10" height="10" as="geometry" />
        </mxCell>
        <mxCell id="1FM3fD10bi2aSTOGDLm9-96" value="0" style="rounded=0;whiteSpace=wrap;html=1;strokeColor=#990000;fontSize=10;" parent="1FM3fD10bi2aSTOGDLm9-107" vertex="1">
          <mxGeometry x="70" width="10" height="10" as="geometry" />
        </mxCell>
        <mxCell id="1FM3fD10bi2aSTOGDLm9-97" value="0" style="rounded=0;whiteSpace=wrap;html=1;strokeColor=#990000;fontSize=10;" parent="1FM3fD10bi2aSTOGDLm9-107" vertex="1">
          <mxGeometry x="80" width="10" height="10" as="geometry" />
        </mxCell>
        <mxCell id="1FM3fD10bi2aSTOGDLm9-98" value="0" style="rounded=0;whiteSpace=wrap;html=1;strokeColor=#990000;fontSize=10;" parent="1FM3fD10bi2aSTOGDLm9-107" vertex="1">
          <mxGeometry x="90" width="10" height="10" as="geometry" />
        </mxCell>
        <mxCell id="1FM3fD10bi2aSTOGDLm9-99" value="0" style="rounded=0;whiteSpace=wrap;html=1;strokeColor=#990000;fontSize=10;" parent="1FM3fD10bi2aSTOGDLm9-107" vertex="1">
          <mxGeometry x="100" width="10" height="10" as="geometry" />
        </mxCell>
        <mxCell id="1FM3fD10bi2aSTOGDLm9-100" value="0" style="rounded=0;whiteSpace=wrap;html=1;strokeColor=#990000;fontSize=10;" parent="1FM3fD10bi2aSTOGDLm9-107" vertex="1">
          <mxGeometry x="110" width="10" height="10" as="geometry" />
        </mxCell>
        <mxCell id="1FM3fD10bi2aSTOGDLm9-101" value="0" style="rounded=0;whiteSpace=wrap;html=1;strokeColor=#990000;fontSize=10;" parent="1FM3fD10bi2aSTOGDLm9-107" vertex="1">
          <mxGeometry x="120" width="10" height="10" as="geometry" />
        </mxCell>
        <mxCell id="1FM3fD10bi2aSTOGDLm9-102" value="0" style="rounded=0;whiteSpace=wrap;html=1;strokeColor=#990000;fontSize=10;" parent="1FM3fD10bi2aSTOGDLm9-107" vertex="1">
          <mxGeometry x="130" width="10" height="10" as="geometry" />
        </mxCell>
        <mxCell id="1FM3fD10bi2aSTOGDLm9-103" value="0" style="rounded=0;whiteSpace=wrap;html=1;strokeColor=#990000;fontSize=10;" parent="1FM3fD10bi2aSTOGDLm9-107" vertex="1">
          <mxGeometry x="140" width="10" height="10" as="geometry" />
        </mxCell>
        <mxCell id="1FM3fD10bi2aSTOGDLm9-104" value="0" style="rounded=0;whiteSpace=wrap;html=1;strokeColor=#990000;fontSize=10;" parent="1FM3fD10bi2aSTOGDLm9-107" vertex="1">
          <mxGeometry x="150" width="10" height="10" as="geometry" />
        </mxCell>
        <mxCell id="1FM3fD10bi2aSTOGDLm9-109" value="&lt;font style=&quot;color: rgb(0, 153, 0);&quot;&gt;&lt;b&gt;&lt;font style=&quot;font-size: 14px;&quot; face=&quot;Courier New&quot;&gt;OC&lt;/font&gt;&lt;/b&gt;-Register&lt;/font&gt;" style="text;html=1;align=left;verticalAlign=middle;resizable=0;points=[];autosize=1;strokeColor=none;fillColor=none;" parent="1" vertex="1">
          <mxGeometry x="458" y="197" width="90" height="30" as="geometry" />
        </mxCell>
        <mxCell id="1FM3fD10bi2aSTOGDLm9-111" value="&lt;font style=&quot;color: rgb(0, 0, 153);&quot;&gt;&lt;b&gt;&lt;font style=&quot;font-size: 14px;&quot; face=&quot;Courier New&quot;&gt;CNT&lt;/font&gt;&lt;/b&gt;-Register (AufwÃ¤rtszÃ¤hler)&lt;/font&gt;" style="text;html=1;align=left;verticalAlign=middle;resizable=0;points=[];autosize=1;strokeColor=none;fillColor=none;" parent="1" vertex="1">
          <mxGeometry x="458" y="238" width="190" height="30" as="geometry" />
        </mxCell>
        <mxCell id="1FM3fD10bi2aSTOGDLm9-112" value="&lt;font style=&quot;color: rgb(153, 0, 0);&quot;&gt;&lt;font style=&quot;font-size: 14px;&quot; face=&quot;Courier New&quot;&gt;&lt;b style=&quot;&quot;&gt;ARR&lt;/b&gt;&lt;/font&gt;-Register&lt;/font&gt;" style="text;html=1;align=left;verticalAlign=middle;resizable=0;points=[];autosize=1;strokeColor=none;fillColor=none;" parent="1" vertex="1">
          <mxGeometry x="458" y="157" width="100" height="30" as="geometry" />
        </mxCell>
        <mxCell id="1FM3fD10bi2aSTOGDLm9-119" value="" style="endArrow=none;dashed=1;html=1;dashPattern=1 3;strokeWidth=1;rounded=0;strokeColor=#00CC00;" parent="1" edge="1">
          <mxGeometry width="50" height="50" relative="1" as="geometry">
            <mxPoint x="160" y="360" as="sourcePoint" />
            <mxPoint x="140" y="380" as="targetPoint" />
          </mxGeometry>
        </mxCell>
        <mxCell id="1FM3fD10bi2aSTOGDLm9-121" value="" style="endArrow=none;dashed=1;html=1;dashPattern=1 3;strokeWidth=1;rounded=0;strokeColor=#00CC00;" parent="1" edge="1">
          <mxGeometry width="50" height="50" relative="1" as="geometry">
            <mxPoint x="240" y="360" as="sourcePoint" />
            <mxPoint x="220" y="380" as="targetPoint" />
          </mxGeometry>
        </mxCell>
        <mxCell id="1FM3fD10bi2aSTOGDLm9-122" value="" style="endArrow=none;dashed=1;html=1;dashPattern=1 3;strokeWidth=1;rounded=0;strokeColor=#00CC00;" parent="1" edge="1">
          <mxGeometry width="50" height="50" relative="1" as="geometry">
            <mxPoint x="320" y="360" as="sourcePoint" />
            <mxPoint x="300" y="380" as="targetPoint" />
          </mxGeometry>
        </mxCell>
        <mxCell id="1FM3fD10bi2aSTOGDLm9-123" value="" style="endArrow=none;dashed=1;html=1;dashPattern=1 3;strokeWidth=1;rounded=0;strokeColor=#FF0000;" parent="1" edge="1">
          <mxGeometry width="50" height="50" relative="1" as="geometry">
            <mxPoint x="200" y="400" as="sourcePoint" />
            <mxPoint x="180" y="420" as="targetPoint" />
          </mxGeometry>
        </mxCell>
        <mxCell id="1FM3fD10bi2aSTOGDLm9-124" value="" style="endArrow=none;dashed=1;html=1;dashPattern=1 3;strokeWidth=1;rounded=0;strokeColor=#FF0000;" parent="1" edge="1">
          <mxGeometry width="50" height="50" relative="1" as="geometry">
            <mxPoint x="280" y="400" as="sourcePoint" />
            <mxPoint x="260" y="420" as="targetPoint" />
          </mxGeometry>
        </mxCell>
        <mxCell id="1FM3fD10bi2aSTOGDLm9-125" value="" style="endArrow=none;dashed=1;html=1;dashPattern=1 3;strokeWidth=1;rounded=0;strokeColor=#FF0000;" parent="1" edge="1">
          <mxGeometry width="50" height="50" relative="1" as="geometry">
            <mxPoint x="360" y="400" as="sourcePoint" />
            <mxPoint x="340" y="420" as="targetPoint" />
          </mxGeometry>
        </mxCell>
        <mxCell id="1FM3fD10bi2aSTOGDLm9-126" value="" style="endArrow=none;dashed=1;html=1;dashPattern=1 3;strokeWidth=1;rounded=0;strokeColor=#00CC00;" parent="1" edge="1">
          <mxGeometry width="50" height="50" relative="1" as="geometry">
            <mxPoint x="300" y="380" as="sourcePoint" />
            <mxPoint x="120" y="380" as="targetPoint" />
          </mxGeometry>
        </mxCell>
        <mxCell id="1FM3fD10bi2aSTOGDLm9-127" value="" style="endArrow=none;dashed=1;html=1;dashPattern=1 3;strokeWidth=1;rounded=0;strokeColor=#FF0000;" parent="1" edge="1">
          <mxGeometry width="50" height="50" relative="1" as="geometry">
            <mxPoint x="340" y="420" as="sourcePoint" />
            <mxPoint x="160" y="420" as="targetPoint" />
          </mxGeometry>
        </mxCell>
        <mxCell id="1FM3fD10bi2aSTOGDLm9-128" value="&lt;font style=&quot;color: rgb(0, 153, 0);&quot;&gt;&lt;b&gt;&lt;font face=&quot;Courier New&quot;&gt;CNT == OC&lt;/font&gt;&lt;br&gt;&lt;/b&gt;neuer ADC-Wert&lt;/font&gt;" style="text;html=1;align=left;verticalAlign=middle;resizable=0;points=[];autosize=1;strokeColor=none;fillColor=none;" parent="1" vertex="1">
          <mxGeometry x="30" y="360" width="110" height="40" as="geometry" />
        </mxCell>
        <mxCell id="1FM3fD10bi2aSTOGDLm9-129" value="&lt;b style=&quot;&quot;&gt;&lt;font face=&quot;Courier New&quot;&gt;CNT == ARR&lt;/font&gt;&lt;/b&gt;&lt;div&gt;&lt;font&gt;DMA-Transfer&lt;/font&gt;&lt;/div&gt;" style="text;html=1;align=left;verticalAlign=middle;resizable=0;points=[];autosize=1;strokeColor=none;fillColor=none;fontColor=#990000;" parent="1" vertex="1">
          <mxGeometry x="83" y="400" width="100" height="40" as="geometry" />
        </mxCell>
        <mxCell id="1FM3fD10bi2aSTOGDLm9-130" value="&lt;font&gt;&lt;b&gt;ADC-Clock&lt;/b&gt;&lt;/font&gt;" style="text;html=1;align=left;verticalAlign=middle;resizable=0;points=[];autosize=1;strokeColor=none;fillColor=none;fontColor=#000000;" parent="1" vertex="1">
          <mxGeometry x="30" y="290" width="90" height="30" as="geometry" />
        </mxCell>
        <mxCell id="1FM3fD10bi2aSTOGDLm9-131" value="&lt;font&gt;&lt;b&gt;HW-Timer&lt;/b&gt;&lt;/font&gt;&lt;div&gt;&lt;font&gt;&lt;b&gt;TIM1&lt;/b&gt;&lt;/font&gt;&lt;/div&gt;" style="text;html=1;align=left;verticalAlign=middle;resizable=0;points=[];autosize=1;strokeColor=none;fillColor=none;fontColor=#000000;" parent="1" vertex="1">
          <mxGeometry x="30" y="180" width="80" height="40" as="geometry" />
        </mxCell>
        <mxCell id="3Tezrs6i3VKXPbW8rNI_-2" value="&lt;span style=&quot;font-size: 11px; text-align: left; background-color: rgb(255, 255, 255);&quot;&gt;Beispielhafte Werte fÃ¼r die&lt;/span&gt;&lt;div style=&quot;text-align: left;&quot;&gt;&lt;span style=&quot;font-size: 11px; background-color: rgb(255, 255, 255);&quot;&gt;Timer-Register.&lt;/span&gt;&lt;/div&gt;" style="text;html=1;align=center;verticalAlign=middle;resizable=0;points=[];autosize=1;strokeColor=none;fillColor=none;" vertex="1" parent="1">
          <mxGeometry x="450" y="268" width="150" height="40" as="geometry" />
        </mxCell>
      </root>
    </mxGraphModel>
  </diagram>
</mxfile>
